<?xml version="1.0" standalone="no"?>
<!DOCTYPE svg PUBLIC "-//W3C//DTD SVG 20010904//EN"
 "http://www.w3.org/TR/2001/REC-SVG-20010904/DTD/svg10.dtd">
<svg version="1.0" xmlns="http://www.w3.org/2000/svg"
 width="512.000000pt" height="512.000000pt" viewBox="0 0 512.000000 512.000000"
 preserveAspectRatio="xMidYMid meet">
<metadata>
Created by potrace 1.14, written by Peter Selinger 2001-2017
</metadata>
<g transform="translate(0.000000,512.000000) scale(0.100000,-0.100000)"
fill="#000000" stroke="none">
<path d="M1270 5113 c-87 -14 -201 -48 -272 -80 -46 -20 -85 -40 -88 -43 -3
-3 -30 -22 -62 -42 -116 -76 -236 -208 -305 -338 -26 -48 -71 -157 -77 -185
-1 -5 -5 -19 -9 -30 -27 -84 -33 -331 -11 -430 39 -170 111 -317 211 -432 30
-35 259 -268 510 -518 l455 -455 679 679 c373 373 679 682 679 687 0 15 -956
961 -1013 1003 -107 78 -277 153 -397 176 -42 7 -265 13 -300 8z"/>
<path d="M4063 5106 c-144 -35 -276 -142 -341 -278 -40 -83 -49 -129 -51 -261
l-2 -127 30 0 c152 0 341 121 418 267 49 91 61 146 62 284 l2 126 -33 0 c-18
1 -56 -5 -85 -11z"/>
<path d="M3246 5031 c-2 -3 -3 -80 -2 -171 l1 -165 83 -1 c53 -1 82 3 83 10 4
46 3 309 -1 319 -5 12 -158 20 -164 8z"/>
<path d="M4097 4343 c-3 -7 -2 -288 2 -320 1 -9 25 -13 84 -13 l83 0 0 170 0
170 -82 0 c-46 0 -84 -3 -87 -7z"/>
<path d="M3331 4051 c1 -107 5 -143 23 -195 36 -103 92 -182 177 -252 65 -53
206 -104 287 -104 l25 0 -5 138 c-6 151 -18 201 -73 292 -81 134 -231 233
-377 247 l-59 6 2 -132z"/>
<path d="M2967 3467 c-9 -17 -42 -72 -73 -122 -128 -204 -154 -272 -159 -413
-5 -119 40 -208 126 -252 l39 -20 0 -220 0 -220 -641 0 -640 0 3 -672 4 -673
26 -97 c104 -381 378 -651 761 -750 110 -28 336 -31 447 -5 318 75 554 262
712 567 21 40 73 204 84 265 4 22 9 338 11 702 l4 662 -43 3 -43 3 1 150 c1
171 10 209 62 267 44 49 100 78 161 85 44 4 47 3 60 -27 18 -42 68 -92 117
-116 57 -28 215 -26 302 5 49 17 297 156 390 219 10 7 -12 25 -78 66 -51 31
-94 56 -97 56 -2 0 -24 14 -48 30 -104 71 -226 110 -343 110 -111 -1 -188 -42
-237 -126 -22 -37 -31 -44 -58 -45 -96 -2 -204 -49 -276 -120 -98 -97 -124
-178 -126 -394 l-2 -160 -171 -3 -172 -2 0 217 0 218 36 20 c52 28 109 97 124
150 8 28 11 74 7 122 -10 141 -22 172 -138 365 -125 209 -112 194 -132 155z"/>
<path d="M2307 2641 c-3 -6 -1 -132 2 -157 1 -12 152 -14 161 -2 3 4 5 42 4
85 l-1 77 -82 2 c-45 0 -83 -2 -84 -5z"/>
</g>
</svg>
